<svg width="168" height="20" viewBox="0 0 168 20" fill="none" xmlns="http://www.w3.org/2000/svg">
<path d="M1.328 19.182C0.981333 19.182 0.712667 19.0867 0.522 18.896C0.348667 18.688 0.262 18.4107 0.262 18.064V1.606C0.262 1.242 0.348667 0.964665 0.522 0.773999C0.712667 0.583333 0.981333 0.488 1.328 0.488C1.67467 0.488 1.93467 0.583333 2.108 0.773999C2.29867 0.964665 2.394 1.242 2.394 1.606V8.782H13.392V1.606C13.392 1.242 13.4787 0.964665 13.652 0.773999C13.8427 0.583333 14.1113 0.488 14.458 0.488C14.8047 0.488 15.0647 0.583333 15.238 0.773999C15.4287 0.964665 15.524 1.242 15.524 1.606V18.064C15.524 18.4107 15.4287 18.688 15.238 18.896C15.0647 19.0867 14.8047 19.182 14.458 19.182C14.1113 19.182 13.8427 19.0867 13.652 18.896C13.4787 18.688 13.392 18.4107 13.392 18.064V10.628H2.394V18.064C2.394 18.4107 2.30733 18.688 2.134 18.896C1.96067 19.0867 1.692 19.182 1.328 19.182ZM25.0073 19.234C23.7766 19.234 22.7106 18.9653 21.8093 18.428C20.908 17.8907 20.206 17.1367 19.7033 16.166C19.218 15.178 18.9753 14.0167 18.9753 12.682C18.9753 11.6767 19.114 10.7753 19.3913 9.978C19.6686 9.16333 20.076 8.47 20.6133 7.898C21.1506 7.326 21.7833 6.89267 22.5113 6.598C23.2566 6.286 24.0886 6.13 25.0073 6.13C26.238 6.13 27.304 6.39867 28.2053 6.936C29.1066 7.47333 29.8 8.236 30.2853 9.224C30.788 10.1947 31.0393 11.3473 31.0393 12.682C31.0393 13.6873 30.9006 14.5887 30.6233 15.386C30.346 16.1833 29.9386 16.8767 29.4013 17.466C28.864 18.038 28.2226 18.48 27.4773 18.792C26.7493 19.0867 25.926 19.234 25.0073 19.234ZM25.0073 17.544C25.7873 17.544 26.472 17.3533 27.0613 16.972C27.6506 16.5907 28.1013 16.036 28.4133 15.308C28.7426 14.58 28.9073 13.7047 28.9073 12.682C28.9073 11.1047 28.552 9.9 27.8413 9.068C27.148 8.236 26.2033 7.82 25.0073 7.82C24.21 7.82 23.5166 8.01067 22.9273 8.392C22.3553 8.756 21.9046 9.302 21.5753 10.03C21.2633 10.7407 21.1073 11.6247 21.1073 12.682C21.1073 14.242 21.4626 15.4467 22.1733 16.296C22.884 17.128 23.8286 17.544 25.0073 17.544ZM39.1456 19.234C38.1576 19.234 37.3256 19.0607 36.6496 18.714C35.9909 18.35 35.4969 17.83 35.1676 17.154C34.8383 16.4607 34.6736 15.62 34.6736 14.632V8.002H32.9316C32.6369 8.002 32.4116 7.93267 32.2556 7.794C32.0996 7.638 32.0216 7.43 32.0216 7.17C32.0216 6.91 32.0996 6.71067 32.2556 6.572C32.4116 6.43333 32.6369 6.364 32.9316 6.364H34.6736V3.374C34.6736 3.02733 34.7689 2.76733 34.9596 2.594C35.1503 2.40333 35.4103 2.308 35.7396 2.308C36.0689 2.308 36.3203 2.40333 36.4936 2.594C36.6843 2.76733 36.7796 3.02733 36.7796 3.374V6.364H40.0556C40.3503 6.364 40.5756 6.43333 40.7316 6.572C40.8876 6.71067 40.9656 6.91 40.9656 7.17C40.9656 7.43 40.8876 7.638 40.7316 7.794C40.5756 7.93267 40.3503 8.002 40.0556 8.002H36.7796V14.424C36.7796 15.412 36.9876 16.166 37.4036 16.686C37.8196 17.1887 38.4956 17.44 39.4316 17.44C39.7609 17.44 40.0383 17.4053 40.2636 17.336C40.5063 17.2667 40.7056 17.232 40.8616 17.232C41.0176 17.2147 41.1476 17.2667 41.2516 17.388C41.3556 17.5093 41.4076 17.7173 41.4076 18.012C41.4076 18.22 41.3643 18.4107 41.2776 18.584C41.2083 18.7573 41.0783 18.8787 40.8876 18.948C40.6796 19.0173 40.4023 19.078 40.0556 19.13C39.7263 19.1993 39.4229 19.234 39.1456 19.234ZM47.1658 19.234C45.9178 19.234 44.9645 18.8527 44.3058 18.09C43.6471 17.3273 43.3178 16.2353 43.3178 14.814V1.554C43.3178 1.20733 43.4045 0.947332 43.5778 0.773999C43.7511 0.583333 44.0111 0.488 44.3578 0.488C44.6871 0.488 44.9471 0.583333 45.1378 0.773999C45.3285 0.947332 45.4238 1.20733 45.4238 1.554V14.658C45.4238 15.594 45.6058 16.296 45.9698 16.764C46.3511 17.2147 46.9058 17.44 47.6338 17.44C47.7898 17.44 47.9285 17.4313 48.0498 17.414C48.1711 17.3967 48.2925 17.388 48.4138 17.388C48.6045 17.3707 48.7345 17.414 48.8038 17.518C48.8905 17.622 48.9338 17.83 48.9338 18.142C48.9338 18.454 48.8645 18.688 48.7258 18.844C48.5871 19 48.3618 19.104 48.0498 19.156C47.9111 19.1733 47.7638 19.1907 47.6078 19.208C47.4518 19.2253 47.3045 19.234 47.1658 19.234ZM52.0512 19.13C51.7045 19.13 51.4445 19.0347 51.2712 18.844C51.0978 18.636 51.0112 18.35 51.0112 17.986V7.352C51.0112 6.988 51.0978 6.71067 51.2712 6.52C51.4445 6.32933 51.7045 6.234 52.0512 6.234C52.3805 6.234 52.6405 6.32933 52.8312 6.52C53.0218 6.71067 53.1172 6.988 53.1172 7.352V17.986C53.1172 18.35 53.0218 18.636 52.8312 18.844C52.6578 19.0347 52.3978 19.13 52.0512 19.13ZM52.0512 3.322C51.6178 3.322 51.2798 3.20933 51.0372 2.984C50.7945 2.74133 50.6732 2.42067 50.6732 2.022C50.6732 1.606 50.7945 1.294 51.0372 1.086C51.2798 0.860666 51.6178 0.747999 52.0512 0.747999C52.5018 0.747999 52.8398 0.860666 53.0652 1.086C53.3078 1.294 53.4292 1.606 53.4292 2.022C53.4292 2.42067 53.3078 2.74133 53.0652 2.984C52.8398 3.20933 52.5018 3.322 52.0512 3.322ZM58.0941 19.182C57.7475 19.182 57.4875 19.0867 57.3141 18.896C57.1408 18.7053 57.0541 18.4367 57.0541 18.09V7.248C57.0541 6.90133 57.1408 6.64133 57.3141 6.468C57.4875 6.27733 57.7388 6.182 58.0681 6.182C58.3975 6.182 58.6488 6.27733 58.8221 6.468C59.0128 6.64133 59.1081 6.90133 59.1081 7.248V9.484L58.8221 9.172C59.1861 8.16667 59.7755 7.41267 60.5901 6.91C61.4221 6.39 62.3755 6.13 63.4501 6.13C64.4555 6.13 65.2875 6.312 65.9461 6.676C66.6221 7.04 67.1248 7.59467 67.4541 8.34C67.7835 9.068 67.9481 9.99533 67.9481 11.122V18.09C67.9481 18.4367 67.8528 18.7053 67.6621 18.896C67.4888 19.0867 67.2375 19.182 66.9081 19.182C66.5615 19.182 66.2928 19.0867 66.1021 18.896C65.9288 18.7053 65.8421 18.4367 65.8421 18.09V11.252C65.8421 10.0733 65.6081 9.21533 65.1401 8.678C64.6895 8.12333 63.9615 7.846 62.9561 7.846C61.7948 7.846 60.8675 8.21 60.1741 8.938C59.4981 9.64867 59.1601 10.602 59.1601 11.798V18.09C59.1601 18.818 58.8048 19.182 58.0941 19.182ZM77.5255 19.234C76.1908 19.234 75.0381 18.974 74.0675 18.454C73.1141 17.9167 72.3688 17.1627 71.8315 16.192C71.3115 15.2213 71.0515 14.06 71.0515 12.708C71.0515 11.3907 71.3115 10.2467 71.8315 9.276C72.3515 8.288 73.0621 7.51667 73.9635 6.962C74.8821 6.40733 75.9395 6.13 77.1355 6.13C77.9848 6.13 78.7475 6.27733 79.4235 6.572C80.0995 6.84933 80.6715 7.25667 81.1395 7.794C81.6248 8.33133 81.9888 8.98133 82.2315 9.744C82.4915 10.5067 82.6215 11.3647 82.6215 12.318C82.6215 12.5953 82.5435 12.8033 82.3875 12.942C82.2315 13.0633 82.0061 13.124 81.7115 13.124H72.6635V11.746H81.2175L80.8015 12.084C80.8015 11.148 80.6628 10.3593 80.3855 9.718C80.1081 9.05933 79.7008 8.55667 79.1635 8.21C78.6435 7.86333 77.9848 7.69 77.1875 7.69C76.3035 7.69 75.5495 7.898 74.9255 8.314C74.3188 8.71267 73.8595 9.276 73.5475 10.004C73.2355 10.7147 73.0795 11.5467 73.0795 12.5V12.656C73.0795 14.2507 73.4608 15.464 74.2235 16.296C75.0035 17.128 76.1041 17.544 77.5255 17.544C78.1148 17.544 78.6955 17.466 79.2675 17.31C79.8568 17.154 80.4288 16.894 80.9835 16.53C81.2261 16.374 81.4428 16.3047 81.6335 16.322C81.8415 16.322 82.0061 16.3827 82.1275 16.504C82.2488 16.608 82.3268 16.7467 82.3615 16.92C82.4135 17.076 82.3961 17.2493 82.3095 17.44C82.2401 17.6307 82.0928 17.7953 81.8675 17.934C81.2955 18.35 80.6195 18.6707 79.8395 18.896C79.0595 19.1213 78.2881 19.234 77.5255 19.234ZM100.588 19.234C98.7858 19.234 97.2432 18.8527 95.9605 18.09C94.6778 17.3273 93.6898 16.244 92.9965 14.84C92.3205 13.436 91.9825 11.7633 91.9825 9.822C91.9825 8.366 92.1732 7.066 92.5545 5.922C92.9532 4.76067 93.5165 3.78133 94.2445 2.984C94.9898 2.16933 95.8998 1.54533 96.9745 1.112C98.0492 0.661332 99.2538 0.435999 100.588 0.435999C101.663 0.435999 102.686 0.591999 103.656 0.903999C104.627 1.19867 105.468 1.64067 106.178 2.23C106.404 2.40333 106.551 2.60267 106.62 2.828C106.707 3.036 106.716 3.244 106.646 3.452C106.594 3.64267 106.49 3.80733 106.334 3.946C106.196 4.06733 106.022 4.128 105.814 4.128C105.606 4.128 105.372 4.04133 105.112 3.868C104.488 3.36533 103.804 2.99267 103.058 2.75C102.313 2.50733 101.507 2.386 100.64 2.386C99.2712 2.386 98.1098 2.68067 97.1565 3.27C96.2032 3.842 95.4838 4.68267 94.9985 5.792C94.5132 6.90133 94.2705 8.24467 94.2705 9.822C94.2705 11.3993 94.5132 12.7513 94.9985 13.878C95.4838 14.9873 96.2032 15.8367 97.1565 16.426C98.1098 16.998 99.2712 17.284 100.64 17.284C101.49 17.284 102.296 17.1627 103.058 16.92C103.821 16.66 104.523 16.2787 105.164 15.776C105.424 15.6027 105.658 15.5247 105.866 15.542C106.074 15.542 106.248 15.6027 106.386 15.724C106.525 15.8453 106.62 16.0013 106.672 16.192C106.742 16.3827 106.742 16.582 106.672 16.79C106.62 16.998 106.49 17.18 106.282 17.336C105.554 17.96 104.696 18.4367 103.708 18.766C102.738 19.078 101.698 19.234 100.588 19.234ZM114.647 19.234C113.312 19.234 112.159 18.974 111.189 18.454C110.235 17.9167 109.49 17.1627 108.953 16.192C108.433 15.2213 108.173 14.06 108.173 12.708C108.173 11.3907 108.433 10.2467 108.953 9.276C109.473 8.288 110.183 7.51667 111.085 6.962C112.003 6.40733 113.061 6.13 114.257 6.13C115.106 6.13 115.869 6.27733 116.545 6.572C117.221 6.84933 117.793 7.25667 118.261 7.794C118.746 8.33133 119.11 8.98133 119.353 9.744C119.613 10.5067 119.743 11.3647 119.743 12.318C119.743 12.5953 119.665 12.8033 119.509 12.942C119.353 13.0633 119.127 13.124 118.833 13.124H109.785V11.746H118.339L117.923 12.084C117.923 11.148 117.784 10.3593 117.507 9.718C117.229 9.05933 116.822 8.55667 116.285 8.21C115.765 7.86333 115.106 7.69 114.309 7.69C113.425 7.69 112.671 7.898 112.047 8.314C111.44 8.71267 110.981 9.276 110.669 10.004C110.357 10.7147 110.201 11.5467 110.201 12.5V12.656C110.201 14.2507 110.582 15.464 111.345 16.296C112.125 17.128 113.225 17.544 114.647 17.544C115.236 17.544 115.817 17.466 116.389 17.31C116.978 17.154 117.55 16.894 118.105 16.53C118.347 16.374 118.564 16.3047 118.755 16.322C118.963 16.322 119.127 16.3827 119.249 16.504C119.37 16.608 119.448 16.7467 119.483 16.92C119.535 17.076 119.517 17.2493 119.431 17.44C119.361 17.6307 119.214 17.7953 118.989 17.934C118.417 18.35 117.741 18.6707 116.961 18.896C116.181 19.1213 115.409 19.234 114.647 19.234ZM123.83 19.182C123.484 19.182 123.224 19.0867 123.05 18.896C122.877 18.7053 122.79 18.4367 122.79 18.09V7.248C122.79 6.90133 122.877 6.64133 123.05 6.468C123.224 6.27733 123.475 6.182 123.804 6.182C124.134 6.182 124.385 6.27733 124.558 6.468C124.749 6.64133 124.844 6.90133 124.844 7.248V9.484L124.558 9.172C124.922 8.16667 125.512 7.41267 126.326 6.91C127.158 6.39 128.112 6.13 129.186 6.13C130.192 6.13 131.024 6.312 131.682 6.676C132.358 7.04 132.861 7.59467 133.19 8.34C133.52 9.068 133.684 9.99533 133.684 11.122V18.09C133.684 18.4367 133.589 18.7053 133.398 18.896C133.225 19.0867 132.974 19.182 132.644 19.182C132.298 19.182 132.029 19.0867 131.838 18.896C131.665 18.7053 131.578 18.4367 131.578 18.09V11.252C131.578 10.0733 131.344 9.21533 130.876 8.678C130.426 8.12333 129.698 7.846 128.692 7.846C127.531 7.846 126.604 8.21 125.91 8.938C125.234 9.64867 124.896 10.602 124.896 11.798V18.09C124.896 18.818 124.541 19.182 123.83 19.182ZM142.638 19.234C141.65 19.234 140.818 19.0607 140.142 18.714C139.483 18.35 138.989 17.83 138.66 17.154C138.33 16.4607 138.166 15.62 138.166 14.632V8.002H136.424C136.129 8.002 135.904 7.93267 135.748 7.794C135.592 7.638 135.514 7.43 135.514 7.17C135.514 6.91 135.592 6.71067 135.748 6.572C135.904 6.43333 136.129 6.364 136.424 6.364H138.166V3.374C138.166 3.02733 138.261 2.76733 138.452 2.594C138.642 2.40333 138.902 2.308 139.232 2.308C139.561 2.308 139.812 2.40333 139.986 2.594C140.176 2.76733 140.272 3.02733 140.272 3.374V6.364H143.548C143.842 6.364 144.068 6.43333 144.224 6.572C144.38 6.71067 144.458 6.91 144.458 7.17C144.458 7.43 144.38 7.638 144.224 7.794C144.068 7.93267 143.842 8.002 143.548 8.002H140.272V14.424C140.272 15.412 140.48 16.166 140.896 16.686C141.312 17.1887 141.988 17.44 142.924 17.44C143.253 17.44 143.53 17.4053 143.756 17.336C143.998 17.2667 144.198 17.232 144.354 17.232C144.51 17.2147 144.64 17.2667 144.744 17.388C144.848 17.5093 144.9 17.7173 144.9 18.012C144.9 18.22 144.856 18.4107 144.77 18.584C144.7 18.7573 144.57 18.8787 144.38 18.948C144.172 19.0173 143.894 19.078 143.548 19.13C143.218 19.1993 142.915 19.234 142.638 19.234ZM152.225 19.234C150.89 19.234 149.737 18.974 148.767 18.454C147.813 17.9167 147.068 17.1627 146.531 16.192C146.011 15.2213 145.751 14.06 145.751 12.708C145.751 11.3907 146.011 10.2467 146.531 9.276C147.051 8.288 147.761 7.51667 148.663 6.962C149.581 6.40733 150.639 6.13 151.835 6.13C152.684 6.13 153.447 6.27733 154.123 6.572C154.799 6.84933 155.371 7.25667 155.839 7.794C156.324 8.33133 156.688 8.98133 156.931 9.744C157.191 10.5067 157.321 11.3647 157.321 12.318C157.321 12.5953 157.243 12.8033 157.087 12.942C156.931 13.0633 156.705 13.124 156.411 13.124H147.363V11.746H155.917L155.501 12.084C155.501 11.148 155.362 10.3593 155.085 9.718C154.807 9.05933 154.4 8.55667 153.863 8.21C153.343 7.86333 152.684 7.69 151.887 7.69C151.003 7.69 150.249 7.898 149.625 8.314C149.018 8.71267 148.559 9.276 148.247 10.004C147.935 10.7147 147.779 11.5467 147.779 12.5V12.656C147.779 14.2507 148.16 15.464 148.923 16.296C149.703 17.128 150.803 17.544 152.225 17.544C152.814 17.544 153.395 17.466 153.967 17.31C154.556 17.154 155.128 16.894 155.683 16.53C155.925 16.374 156.142 16.3047 156.333 16.322C156.541 16.322 156.705 16.3827 156.827 16.504C156.948 16.608 157.026 16.7467 157.061 16.92C157.113 17.076 157.095 17.2493 157.009 17.44C156.939 17.6307 156.792 17.7953 156.567 17.934C155.995 18.35 155.319 18.6707 154.539 18.896C153.759 19.1213 152.987 19.234 152.225 19.234ZM161.435 19.182C161.088 19.182 160.819 19.0867 160.629 18.896C160.455 18.7053 160.369 18.4367 160.369 18.09V7.248C160.369 6.90133 160.455 6.64133 160.629 6.468C160.802 6.27733 161.053 6.182 161.383 6.182C161.712 6.182 161.963 6.27733 162.137 6.468C162.327 6.64133 162.423 6.90133 162.423 7.248V9.354H162.163C162.44 8.33133 162.969 7.54267 163.749 6.988C164.529 6.43333 165.491 6.13867 166.635 6.104C166.895 6.08667 167.103 6.14733 167.259 6.286C167.415 6.40733 167.501 6.624 167.519 6.936C167.536 7.23067 167.467 7.46467 167.311 7.638C167.155 7.81133 166.912 7.91533 166.583 7.95L166.167 8.002C164.988 8.106 164.078 8.48733 163.437 9.146C162.813 9.78733 162.501 10.6713 162.501 11.798V18.09C162.501 18.4367 162.405 18.7053 162.215 18.896C162.041 19.0867 161.781 19.182 161.435 19.182Z" fill="black"/>
</svg>
